<svg xmlns="http://www.w3.org/2000/svg" viewBox="0 0 900 700" role="img" aria-labelledby="title desc"><title id="title">商用洗衣主視覺</title><desc id="desc">商用滾筒洗衣設備、整齊摺疊的毛巾與乾淨明亮的洗衣空間插畫</desc><defs><linearGradient id="bg" x1="0" y1="0" x2="1" y2="1"><stop offset="0" stop-color="#d7edf5"/><stop offset="1" stop-color="#f7fbfd"/></linearGradient><linearGradient id="machine" x1="0" y1="0" x2="1" y2="1"><stop offset="0" stop-color="#ffffff"/><stop offset="1" stop-color="#dbe5ea"/></linearGradient><radialGradient id="door" cx="40%" cy="35%" r="65%"><stop offset="0" stop-color="#dff4fb"/><stop offset="0.3" stop-color="#8db8cb"/><stop offset="0.55" stop-color="#2e566d"/><stop offset="0.72" stop-color="#d5e1e7"/><stop offset="1" stop-color="#29475a"/></radialGradient><filter id="shadow" x="-20%" y="-20%" width="140%" height="160%"><feDropShadow dx="0" dy="18" stdDeviation="18" flood-color="#17324a" flood-opacity=".18"/></filter></defs><rect width="900" height="700" rx="42" fill="url(#bg)"/><circle cx="760" cy="105" r="110" fill="#ffffff" opacity=".38"/><circle cx="120" cy="590" r="135" fill="#ffffff" opacity=".24"/><path d="M75 555c160-44 310-30 455 5s228 37 315 7" fill="none" stroke="#b9d8e4" stroke-width="16" stroke-linecap="round" opacity=".55"/><g filter="url(#shadow)"><rect x="90" y="205" width="305" height="350" rx="28" fill="url(#machine)" stroke="#b8c8cf" stroke-width="3"/><rect x="425" y="240" width="295" height="315" rx="28" fill="url(#machine)" stroke="#b8c8cf" stroke-width="3"/><rect x="115" y="235" width="180" height="28" rx="12" fill="#eef4f7"/><circle cx="333" cy="249" r="8" fill="#6c8796"/><circle cx="360" cy="249" r="8" fill="#8eb2c4"/><circle cx="244" cy="390" r="112" fill="#d1dce2"/><circle cx="244" cy="390" r="90" fill="url(#door)"/><path d="M195 351c33 22 74 18 104-8" fill="none" stroke="#edf9fd" stroke-width="10" stroke-linecap="round" opacity=".75"/><rect x="448" y="269" width="174" height="26" rx="11" fill="#eef4f7"/><circle cx="650" cy="282" r="8" fill="#6c8796"/><circle cx="674" cy="282" r="8" fill="#8eb2c4"/><circle cx="573" cy="407" r="98" fill="#d1dce2"/><circle cx="573" cy="407" r="78" fill="url(#door)"/><path d="M535 374c26 17 57 15 81-7" fill="none" stroke="#edf9fd" stroke-width="9" stroke-linecap="round" opacity=".75"/></g><g filter="url(#shadow)"><rect x="668" y="145" width="145" height="24" rx="9" fill="#ffffff"/><rect x="690" y="118" width="104" height="20" rx="8" fill="#d9edf5"/><rect x="658" y="94" width="155" height="18" rx="8" fill="#ffffff"/></g><g filter="url(#shadow)"><rect x="658" y="453" width="145" height="32" rx="10" fill="#ffffff"/><rect x="645" y="487" width="160" height="32" rx="10" fill="#d6eaf2"/><rect x="668" y="521" width="138" height="32" rx="10" fill="#ffffff"/></g><g opacity=".92"><circle cx="774" cy="331" r="45" fill="#eff8fb"/><path d="M774 299c22 25 31 45 31 61a31 31 0 1 1-62 0c0-16 9-36 31-61Z" fill="#74aeca"/><path d="M775 321c9 12 13 22 13 30a14 14 0 1 1-28 0c0-8 5-18 15-30Z" fill="#dff4fb"/></g></svg>